<svg width="3312" height="1393" viewBox="0 0 3312 1393" fill="none" xmlns="http://www.w3.org/2000/svg">
<path d="M2858.67 1295.74C2857.51 1294.52 2856.11 1293.49 2854.47 1292.82C2849.73 1290.81 2844.13 1291.54 2839.87 1294.4C2835.12 1297.62 2832.02 1303.83 2830.56 1309.3C2828.49 1317.15 2829.89 1327.25 2837.86 1331.33C2840.05 1332.43 2842.55 1332.97 2844.98 1332.85C2850.88 1332.49 2856.17 1327.74 2859.28 1322.99C2862.56 1317.88 2864.08 1311.56 2863.17 1305.53C2862.62 1302 2861.16 1298.41 2858.67 1295.8V1295.74Z" fill="#5B652C"/>
<path d="M3001.78 1097.02V1096.96H3001.72L3001.78 1097.02Z" fill="#5B652C"/>
<path d="M3038.35 1123.72C3035.43 1114.17 3031.29 1105.17 3025.69 1097.07C3021.61 1091.17 3016.56 1085.94 3010.54 1082.11C3000.93 1075.96 2989.18 1073.28 2977.87 1074.2C2946.35 1076.63 2923.29 1102.31 2908.63 1128.16C2889.46 1161.99 2877.84 1201.54 2880.33 1240.54V1240.67C2881.19 1253.5 2883.56 1266.4 2889.04 1278.02C2894.51 1289.65 2903.15 1300.05 2914.53 1306.13C2932.78 1315.81 2955.9 1312.89 2973.85 1302.61C2989.37 1293.72 3000.87 1280.34 3010.66 1265.67C3020.76 1250.58 3029.16 1234.28 3035 1217.06C3036.64 1212.25 3038.04 1207.38 3039.26 1202.46C3045.28 1177.94 3046.13 1149.1 3038.41 1123.78L3038.35 1123.72ZM2970.32 1089.1C2970.32 1089.1 2970.02 1089.47 2969.9 1089.65C2970.02 1089.47 2970.2 1089.29 2970.32 1089.1ZM2960.04 1291.65C2960.53 1291.65 2960.95 1291.65 2961.38 1291.53C2961.68 1291.53 2961.93 1291.41 2962.17 1291.35C2961.93 1291.41 2961.62 1291.47 2961.38 1291.53C2960.95 1291.59 2960.53 1291.65 2960.04 1291.65C2960.04 1291.84 2960.04 1291.96 2960.04 1292.08C2960.04 1291.96 2960.04 1291.78 2960.04 1291.65ZM2963.39 1290.74C2963.39 1290.74 2963.69 1290.44 2963.81 1290.32C2963.69 1290.5 2963.51 1290.62 2963.39 1290.74ZM3004.88 1208.18C3002.87 1216.15 3000.44 1224.06 2997.76 1231.84C2989.37 1256.06 2975.19 1290.5 2947.26 1297.31C2941.3 1298.77 2934.79 1298.53 2929.19 1295.85C2922.99 1292.87 2918.42 1287.15 2915.68 1280.88C2908.57 1264.52 2909.97 1243.95 2911.85 1226.61C2913.98 1206.9 2918.91 1187.61 2925.12 1168.81C2927.12 1162.79 2929.19 1156.82 2931.44 1150.86C2936.07 1138.33 2941.3 1125.55 2948.48 1114.05C2955.66 1102.55 2965.76 1089.77 2979.21 1086.67C2994.17 1083.2 3003.42 1094.94 3008.23 1107.48C3013.64 1121.53 3014.25 1136.99 3013.52 1151.89C3012.61 1170.88 3009.69 1189.74 3005 1208.11L3004.88 1208.18ZM2964.12 1289.89C2964.12 1289.89 2964.24 1289.65 2964.3 1289.52C2964.3 1289.65 2964.18 1289.77 2964.12 1289.89Z" fill="#5B652C"/>
<path d="M2839.8 1120.45C2835.91 1115.95 2830.86 1112.48 2825.38 1110.29C2816.38 1106.64 2806.4 1106.03 2796.73 1107.01C2764.17 1110.17 2735.27 1129.82 2712.33 1153.19C2680.27 1185.8 2656.72 1226.93 2645.47 1271.22C2640.78 1289.6 2638.17 1308.83 2640.9 1327.57C2643.64 1346.31 2652.04 1364.74 2666.52 1376.97C2686.84 1394.07 2717.02 1396.69 2741.66 1386.83C2766.3 1376.97 2785.47 1356.16 2797.21 1332.37C2808.16 1310.17 2812.85 1282.66 2800.68 1261.12C2789.67 1241.65 2766.12 1231.01 2743.79 1232.47C2721.46 1233.99 2700.71 1246.34 2686.05 1263.25C2701.5 1213.67 2727.67 1165.42 2769.89 1135.12C2781.39 1126.9 2794.53 1119.9 2808.65 1119.54C2819.78 1119.24 2831.83 1123.98 2836.88 1133.9C2841.99 1143.88 2838.83 1156.53 2831.71 1165.23C2824.59 1173.93 2814.31 1179.29 2804.03 1183.73C2793.74 1188.17 2783.04 1192.07 2773.97 1198.64C2779.51 1191.46 2783.22 1183 2784.8 1174.06C2785.29 1171.38 2785.16 1168.03 2782.79 1166.75C2780.54 1165.6 2777.92 1167.18 2776.22 1169.01C2764.84 1181.11 2770.44 1204.24 2756.75 1213.61C2754.44 1215.19 2751.21 1217.56 2752.61 1220.05C2753.53 1221.7 2756.02 1221.7 2757.66 1220.66C2759.31 1219.63 2760.28 1217.99 2761.62 1216.65C2765.94 1212.33 2772.81 1211.96 2778.78 1213.12C2784.74 1214.27 2790.52 1216.65 2796.6 1216.95C2802.69 1217.26 2809.56 1214.52 2811.57 1208.8C2811.88 1207.95 2812.06 1206.97 2811.75 1206.06C2811.14 1204.42 2809.14 1203.81 2807.43 1203.51C2797.15 1201.62 2786.5 1201.74 2776.28 1203.87C2787.72 1190.06 2808.59 1189.51 2823.98 1180.32C2836.33 1172.96 2844.55 1159.39 2846.25 1145.22C2847.1 1138.1 2846.68 1130.74 2842.84 1124.53C2841.99 1123.13 2840.96 1121.79 2839.86 1120.51L2839.8 1120.45ZM2711.06 1258.45C2711.06 1258.02 2711.06 1257.72 2711.18 1257.41C2711.18 1257.29 2711.3 1257.17 2711.36 1257.05C2711.3 1257.17 2711.24 1257.29 2711.18 1257.41C2711.06 1257.72 2711 1258.02 2711.06 1258.45ZM2711.91 1256.5C2711.91 1256.5 2711.67 1256.68 2711.6 1256.8C2711.73 1256.68 2711.79 1256.62 2711.91 1256.5ZM2685.02 1363.1C2685.02 1363.1 2685.32 1363.47 2685.5 1363.59C2685.32 1363.4 2685.2 1363.28 2685.02 1363.1ZM2695.54 1275.42C2696.45 1274.21 2697.37 1272.93 2698.34 1271.77C2706.68 1261.43 2717.81 1252.42 2731.07 1249.93C2737.77 1248.65 2744.89 1248.96 2751.15 1251.57C2766.12 1257.78 2769.65 1275.06 2769.83 1289.6C2770.08 1307.12 2766 1324.71 2758.03 1340.34C2753.83 1348.56 2748.72 1356.65 2741.97 1362.98C2735.7 1368.94 2727.91 1373.44 2719.39 1374.78C2709.6 1376.36 2699.37 1373.57 2691.34 1367.97C2683.13 1362.25 2680.09 1349.78 2678.63 1340.41C2674.98 1317.59 2682.03 1293.98 2695.54 1275.42ZM2777.07 1192.98C2777.07 1192.98 2777.07 1193.1 2777.07 1193.16C2777.07 1193.16 2777.07 1193.04 2777.07 1192.98ZM2777.07 1193.47C2777.07 1193.47 2777.07 1193.34 2777.07 1193.28C2777.07 1193.28 2777.07 1193.4 2777.07 1193.47ZM2781.76 1196.99C2781.88 1197.3 2782 1197.6 2782.18 1197.91C2782 1197.6 2781.82 1197.3 2781.76 1196.99ZM2781.51 1194.99C2781.51 1194.99 2781.51 1194.99 2781.51 1195.05C2781.51 1195.05 2781.51 1195.05 2781.51 1194.99Z" fill="#5B652C"/>
<path d="M2805.36 1167.17C2804.94 1166.51 2804.88 1165.59 2804.88 1164.8C2804.82 1162.98 2804.69 1160.54 2806.22 1158.11C2806.76 1157.2 2807.92 1155.37 2809.99 1155.01C2813.03 1154.4 2814 1157.38 2813.46 1159.81C2812.85 1162.61 2810.54 1165.05 2807.68 1165.65C2807.13 1165.78 2806.58 1165.84 2806.16 1166.08C2805.79 1166.32 2805.55 1166.75 2805.36 1167.11V1167.17Z" fill="#5B652C"/>
<path d="M2846.98 1134.8C2846.55 1133.1 2846.98 1131.09 2847.53 1129.26C2848.62 1125.19 2850.14 1119.83 2855.13 1115.63C2857.02 1114.05 2860.73 1110.89 2865.48 1111.44C2872.53 1112.29 2872.59 1119.47 2869.67 1124.4C2866.33 1130.05 2859.63 1133.83 2853.06 1133.16C2851.85 1133.04 2850.63 1132.79 2849.41 1133.1C2848.44 1133.34 2847.59 1134.13 2846.98 1134.86V1134.8Z" fill="#5B652C"/>
<path d="M2844.18 1121.12C2843.51 1120.81 2843.02 1120.14 2842.54 1119.54C2841.56 1118.14 2840.23 1116.37 2840.1 1113.7C2840.1 1112.72 2840.04 1110.71 2841.38 1109.38C2843.39 1107.37 2845.7 1109.13 2846.55 1111.26C2847.53 1113.76 2847.04 1116.8 2845.15 1118.75C2844.79 1119.11 2844.42 1119.41 2844.18 1119.9C2844 1120.27 2844.06 1120.75 2844.18 1121.12Z" fill="#5B652C"/>
<path d="M2852.76 1137.66C2852.76 1138.15 2853.13 1138.64 2853.43 1139.06C2854.1 1139.97 2854.95 1141.25 2856.65 1141.86C2857.26 1142.1 2858.54 1142.53 2859.7 1141.98C2861.4 1141.13 2860.79 1139.24 2859.57 1138.27C2858.18 1137.11 2856.11 1136.81 2854.52 1137.6C2854.22 1137.72 2853.92 1137.91 2853.61 1137.97C2853.37 1137.97 2853.06 1137.91 2852.82 1137.72L2852.76 1137.66Z" fill="#5B652C"/>
<path d="M62.6596 934.447C58.3397 934.447 54.1415 930.736 54.2631 926.963C54.3848 922.643 62.7813 913.699 66.6753 913.699C70.3259 913.699 74.8892 918.688 74.7675 922.643C74.585 928.728 68.744 934.386 62.6596 934.447Z" fill="#5B806C"/>
<path d="M2499.88 504.273C2498.66 503.056 2495.56 500.987 2494.16 498.128C2492.15 494.234 2493.67 490.218 2497.08 487.358C2500.49 484.438 2509.86 484.985 2513.14 488.027C2513.63 488.514 2514.24 489.123 2514.36 489.792C2515.33 494.903 2507.36 504.455 2499.94 504.334L2499.88 504.273Z" fill="#5B806C"/>
<path d="M2606.66 489.186C2604.89 491.62 2603.31 493.81 2601.73 495.879C2599.6 498.617 2597.23 500.625 2593.33 498.982C2589.44 497.278 2586.88 494.54 2587.25 490.22C2587.55 486.265 2590.11 483.892 2594 483.406C2599.42 482.675 2603.31 485.535 2606.72 489.186H2606.66Z" fill="#5B806C"/>
<path d="M23.2862 925.2C19.6355 924.956 15.0114 924.591 15.6807 920.211C16.1066 917.655 20.3048 915.586 22.9819 913.579C23.7121 913.031 25.1115 913.396 26.2067 913.396C28.8838 913.518 32.6561 911.875 33.082 916.438C33.5079 920.454 31.6217 923.557 27.4844 924.713C26.085 925.139 24.5639 925.078 23.2253 925.261L23.2862 925.2Z" fill="#5B806C"/>
<path d="M107.012 776.92C106.83 780.084 106.891 783.187 106.465 786.29C105.796 791.827 104.64 797.303 104.214 802.84C104.092 803.935 106.465 806.186 107.803 806.247C114.557 806.612 121.98 808.133 127.943 806.004C134.453 803.631 141.024 802.475 147.595 800.893C149.664 800.406 152.098 796.269 152.159 793.713C152.402 787.02 151.976 780.206 150.82 773.574C149.421 765.542 149.786 758.119 153.071 750.575C154.775 746.681 154.653 741.996 155.444 737.736C159.581 716.928 171.507 700.439 183.858 683.889C206.249 653.954 236.488 634.666 268.978 617.873C295.202 604.365 322.643 594.204 351.178 587.146C366.024 583.496 381.479 582.4 396.446 579.115C418.289 574.308 440.254 577.046 462.218 576.742C466.416 576.681 470.615 577.229 474.813 577.776C481.506 578.628 485.339 574.977 483.392 568.467C481.384 561.653 478.829 554.899 475.665 548.571C462.583 522.773 447.068 498.678 425.347 479.087C419.993 474.28 414.76 469.291 409.162 464.18C410.805 464.849 412.509 465.457 414.091 466.188C431.675 474.28 444.695 487.909 457.351 501.964C471.101 517.236 480.958 535.003 490.328 553.013C493.735 559.584 495.804 566.946 498.055 574.126C499.637 579.176 502.558 582.096 507.547 583.678C526.956 589.884 545.818 597.186 562.854 608.807C577.091 618.542 586.644 631.259 591.815 647.565C598.082 667.157 596.5 686.566 590.538 705.793C582.628 731.287 569.607 754.104 553.849 775.46C532.554 804.179 506.33 827.543 476.151 846.648C472.744 848.778 469.276 850.968 466.356 853.645C459.784 859.73 461.062 865.692 469.337 869.282C473.048 870.864 476.882 872.203 480.532 873.845C492.883 879.261 504.14 886.197 512.232 897.514C517.343 904.694 519.716 904.815 528.234 902.321C533.466 900.739 538.881 899.765 544.296 898.913C552.206 897.757 554.579 895.324 555.127 887.292C555.613 880.599 559.568 875.671 564.618 871.898C577.821 862.163 591.572 853.463 608.122 850.42C616.579 848.838 619.743 843.058 621.446 835.635C625.219 819.451 628.808 803.266 633.067 787.203C641.403 755.99 653.572 726.176 668.296 697.397C678.579 677.257 691.477 658.821 705.593 641.237C712.894 632.11 722.69 626.33 734.007 623.41C743.012 621.098 755.12 626.634 759.927 636.065C762.421 640.994 764.49 646.774 764.429 652.189C764.186 669.895 764.49 687.844 761.569 705.185C758.771 721.795 752.808 737.98 747.149 753.982C740.457 772.844 730.782 790.306 719.587 806.977C709 822.736 696.223 836.061 680.404 846.465C672.433 851.698 667.931 858.026 666.106 868.248C659.96 901.651 659.778 935.116 660.386 968.763C660.569 978.62 661.847 988.476 663.368 998.212C663.794 1001.01 666.288 1004.05 668.722 1005.7C669.695 1006.36 673.772 1003.99 675.171 1002.11C683.264 991.275 692.086 980.749 695.858 967.424C697.683 960.975 699.083 954.282 699.874 947.589C704.802 906.276 724.272 872.568 753.66 843.971C756.519 841.172 759.744 838.677 762.969 836.244C772.765 828.821 776.78 828.699 787.245 835.331C797.771 841.902 798.806 841.841 808.297 833.81C820.04 823.892 833.608 817.686 848.576 814.765C859.893 812.575 875.834 820.181 881.371 830.342C887.759 842.085 891.288 854.314 891.471 868.004C891.897 896.845 884.96 924.103 876.138 951.118C875.043 954.586 873.765 958.054 872.609 961.522C871.088 965.781 872.427 969.797 876.077 971.501C878.937 972.779 883.439 972.9 886.177 971.501C890.984 969.006 895.365 965.356 899.137 961.462C913.8 946.19 925.847 929.701 931.688 908.344C936.799 889.665 946.413 872.446 959.677 857.783C967.708 848.838 976.469 840.503 984.988 832.045C991.255 825.778 1001.72 825.596 1008.53 831.376C1016.87 838.434 1020.4 838.373 1028.25 830.828C1038.96 820.607 1052.1 815.131 1066.27 812.332C1079.96 809.655 1096.27 819.085 1101.93 831.741C1108.99 847.378 1112.27 863.867 1111.18 880.843C1110.57 890.395 1108.56 900.009 1106.37 909.379C1102.6 925.381 1098.04 941.2 1094.14 957.142C1093.72 958.906 1094.57 961.766 1095.84 962.8C1097.06 963.774 1100.29 963.895 1101.63 963.043C1106.92 959.454 1112.33 955.803 1116.71 951.301C1125.48 942.296 1133.69 932.682 1141.96 923.19C1148.11 916.132 1154.01 908.953 1160.03 901.773C1173.6 885.467 1183.03 866.605 1192.71 847.865C1195.87 841.78 1196.54 834.601 1202.14 829.49C1203.36 828.395 1203.29 824.075 1202.14 822.554C1195.32 813.731 1188.45 809.594 1177.68 812.332C1171.23 813.975 1164.29 813.731 1157.54 814.035C1155.65 814.035 1153.16 813.549 1151.88 812.332C1149.81 810.324 1147.2 807.586 1147.2 805.091C1147.2 802.597 1149.69 799.372 1152.06 798.216C1168.19 789.941 1184.37 791.462 1200.01 799.494C1214.19 806.795 1224.23 817.747 1227.21 833.992C1227.81 837.339 1227.21 840.929 1227.81 844.336C1228.24 846.952 1228.97 850.42 1230.86 851.698C1232.8 852.976 1236.21 852.307 1238.95 852.002C1240.23 851.82 1241.5 850.603 1242.6 849.69C1253.13 840.442 1265.66 835.392 1279.35 833.627C1288.96 832.41 1309.65 837.765 1316.4 849.812C1324.13 863.563 1326.5 863.563 1338.67 853.402C1350.42 843.545 1364.84 839.59 1379.13 835.879C1385.16 834.297 1392.46 834.418 1398.42 836.244C1420.69 842.876 1432.68 864.78 1428.42 887.779C1425.86 901.591 1424.4 915.585 1422.45 929.518C1419.59 950.144 1416.31 970.588 1410.95 990.789C1404.02 1016.71 1399.15 1043.18 1393.25 1069.4C1391.24 1078.16 1388.69 1086.74 1386.5 1095.44C1385.52 1099.34 1382.97 1101.04 1379.01 1101.53C1369.34 1102.68 1361.37 1099.94 1355.1 1092.28C1346.7 1081.99 1341.11 1070.43 1339.22 1057.23C1339.22 1057.05 1339.22 1056.87 1339.1 1056.68C1330.64 1034.29 1338.12 1013.12 1345.49 992.675C1353.09 971.744 1363.01 951.726 1372.56 931.526C1380.05 915.706 1383.45 899.4 1381.99 882.059C1381.51 876.34 1379.62 871.473 1375.24 867.518C1371.77 864.354 1368 863.684 1364.23 866.301C1355.71 872.264 1347.07 878.165 1339.04 884.737C1326.32 895.202 1321.15 910.535 1315.61 925.137C1309.53 941.139 1304.9 957.75 1300.16 974.239C1297.79 982.635 1296.93 991.458 1294.8 999.915C1291.64 1012.51 1288.6 1025.1 1284.28 1037.27C1281.11 1046.16 1272.66 1050.78 1265.54 1049.69C1254.16 1047.92 1246.98 1041.17 1245.82 1030.7C1243.94 1014.09 1246.55 997.907 1250.87 981.905C1252.52 975.943 1253.61 969.858 1255.07 963.774C1259.21 945.824 1262.68 927.693 1267.79 910.048C1270.89 899.339 1270.77 888.752 1271.07 877.983C1271.07 875.427 1270.34 872.385 1268.95 870.256C1265.23 864.415 1261.58 863.989 1256.23 868.43C1242.48 879.869 1230.86 892.768 1222.89 909.318C1213.88 928.058 1202.5 945.703 1192.65 964.078C1189.54 969.797 1187.54 976.186 1185.83 982.453C1182.3 995.413 1180.36 1008.74 1182.49 1022.12C1183.58 1028.82 1186.62 1035.27 1188.57 1041.84C1189.36 1044.45 1189.48 1047.37 1189.91 1050.11C1187.11 1050.29 1184.01 1051.39 1181.57 1050.54C1164.54 1044.39 1153.71 1031.74 1148.29 1015.07C1145.13 1005.27 1144.76 994.622 1142.82 984.4C1142.33 981.905 1140.63 979.654 1139.47 977.281C1137.34 978.376 1134.78 979.046 1133.08 980.628C1119.63 992.614 1103.33 997.725 1085.99 999.733C1078.5 1000.58 1073.64 1003.26 1069.01 1009.53C1056.66 1026.38 1041.39 1040.01 1020.64 1045.67C1014.19 1047.43 1007.26 1048.04 1000.56 1048.16C981.58 1048.65 964.179 1043.24 949.455 1031.31C944.527 1027.36 940.511 1021.45 937.773 1015.61C932.784 1005.09 928.768 994.074 924.935 983.061C921.771 973.995 917.694 971.866 910.15 977.585C899.502 985.495 888.915 993.222 875.773 996.447C872.913 997.116 869.993 998.333 867.194 998.151C858.311 997.603 852.713 1002.29 848.15 1008.92C837.441 1024.62 823.326 1036.91 805.681 1043.42C777.024 1054.01 748.853 1053.46 723.542 1033.56C720.135 1030.95 717.519 1027.23 714.841 1023.77C712.834 1021.21 711.373 1018.11 709.548 1015.43C703.403 1006.55 699.265 1006 691.538 1013.18C684.42 1019.75 677.848 1026.87 670.547 1033.26C666.897 1036.48 662.516 1039.04 658.074 1041.11C653.815 1043.11 649.982 1041.35 646.575 1038.19C634.284 1026.81 628.139 1011.96 623.332 996.447C618.891 982.088 616.761 967.424 615.179 952.457C613.902 940.105 612.137 927.875 612.502 915.402C612.685 908.831 613.841 902.321 614.084 895.749C614.206 893.316 613.537 890.03 611.894 888.57C610.616 887.475 606.965 887.779 605.018 888.752C582.02 900.009 559.081 911.508 536.204 922.947C528.477 926.78 524.766 932.256 523.366 941.565C520.081 963.591 512.658 984.582 498.299 1002.29C487.59 1015.49 475.908 1027.9 465.808 1041.53C461.671 1047.13 460.089 1054.8 458.142 1061.73C454.978 1073.05 449.684 1083.09 442.992 1092.58C430.519 1110.17 402.896 1110.71 389.753 1102.13C383.973 1098.42 378.923 1098.48 372.717 1100.67C356.472 1106.39 339.983 1111.26 323.738 1117.04C317.593 1119.23 311.995 1122.88 306.154 1125.86C290.03 1134.14 274.272 1143.26 257.722 1150.44C239.774 1158.23 221.885 1152.39 211.238 1135.9C208.256 1131.22 207.283 1124.4 207.587 1118.62C208.135 1108.58 204.18 1103.35 194.993 1099.58C179.417 1093.19 165.179 1084.49 155.079 1070.43C138.773 1047.74 139.564 1023.58 149.603 998.942C152.645 991.458 156.418 984.339 159.947 977.099C163.475 969.797 167.248 962.678 174.975 958.784C175.279 958.602 175.583 958.358 175.827 958.054C181.607 949.536 188.726 944.973 199.86 946.92C205.093 947.832 206.918 943.026 204.788 937.793C202.111 931.1 199.677 924.225 197.67 917.228C195.844 910.717 191.768 906.032 185.927 903.477C180.329 901.043 174.245 899.096 168.221 898.609C158.973 897.879 149.481 897.818 140.233 898.792C133.601 899.461 127.091 902.26 120.581 904.146C120.033 904.329 119.607 904.694 119.06 904.754C111.028 905.911 102.936 907.127 94.9045 908.283C88.1509 909.257 81.3364 910.839 74.5219 911.082C56.0862 911.63 38.8066 907.553 23.5957 896.662C21.8312 895.384 20.5535 893.498 18.8499 892.16C17.8155 891.308 16.1119 890.395 15.0776 890.639C14.2258 890.882 13.3739 892.829 13.2523 894.107C12.8872 898.183 11.7312 901.712 7.04619 901.53C4.67329 901.53 0.779287 900.252 0.292537 898.67C-0.437588 896.297 0.231694 891.734 1.93532 890.639C7.77632 886.866 7.35041 882.911 5.64679 876.949C1.38772 862.224 7.95885 850.055 17.4505 839.651C27.3072 828.821 39.1108 820.485 53.1049 815.617C59.676 813.366 66.308 811.176 73.0008 809.35C76.4081 808.438 77.2599 806.43 77.0773 803.266C76.8948 800.467 75.9213 796.877 80.3629 796.512C83.831 796.147 87.9684 795.052 88.7593 800.771C88.9419 801.866 89.9154 803.083 90.8889 803.874C92.0449 804.787 93.5051 805.335 94.8437 806.004C95.4521 804.665 96.2431 803.327 96.5473 801.866C97.8859 795.721 98.7377 789.393 100.441 783.37C101.171 780.693 103.544 778.502 105.187 776.008C105.856 776.251 106.465 776.433 107.134 776.677L107.012 776.92ZM278.105 1071.96C278.166 1071.41 278.227 1070.86 278.288 1070.31C286.927 1070.31 295.689 1071.41 304.085 1070.07C318.688 1067.76 333.108 1064.11 347.467 1060.58C359.271 1057.66 369.371 1052.55 372.717 1039.1C377.28 1020.85 386.224 1004.66 398.515 990.545C417.072 969.371 438.854 951.726 462.766 936.819C470.31 932.074 477.125 926.172 484.183 920.635C487.347 918.14 488.503 914.55 485.217 911.63C478.889 905.911 472.866 898.913 465.26 895.628C451.205 889.543 436.299 885.528 421.575 881.147C415.308 879.261 408.676 878.226 402.165 877.74C393.404 877.131 384.582 877.496 375.759 877.314C370.77 877.192 365.781 877.861 363.286 882.546C359.392 889.848 356.533 897.453 359.149 906.154C361.339 913.334 362.921 920.635 364.26 927.997C365.842 936.82 364.807 938.341 356.898 942.113C352.274 944.364 348.501 947.346 347.589 952.822C344.425 972.292 340.896 991.701 340.896 1011.48C340.896 1019.26 339.192 1021.33 331.648 1019.14C321.182 1016.1 311.204 1011.35 300.982 1007.52C290.396 1003.57 286.927 996.021 288.205 985.13C289.787 971.927 290.335 958.602 291.734 945.338C293.012 933.412 295.02 921.487 296.602 909.622C298.062 898.609 300.07 887.596 300.617 876.523C301.104 866.909 291.673 861.92 283.338 866.605C279.2 868.917 275.185 871.533 270.865 873.602C248.961 884.128 226.814 891.186 203.571 876.827C201.929 875.853 198.643 877.253 196.209 877.8C192.802 878.591 189.03 881.086 186.292 880.173C184.406 879.565 183.189 874.515 183.006 871.412C182.763 866.362 181.424 862.224 177.53 858.756C174.792 856.383 172.785 856.626 170.777 859.486C168.1 863.198 165.483 866.97 162.441 870.316C158.973 874.089 155.383 872.994 154.106 868.126C151.915 859.669 154.106 853.706 161.894 849.021C166.578 846.161 168.404 842.936 165.909 837.704C164.145 833.931 162.806 829.916 161.103 826.022C155.931 813.975 153.193 812.636 139.99 813.67C133.297 814.157 126.543 813.549 119.79 813.67C114.922 813.792 110.055 814.096 105.248 814.644C104.518 814.765 103.544 816.469 103.484 817.443C102.632 833.262 108.168 846.77 118.39 858.574C130.802 872.933 146.865 881.39 164.51 887.17C170.533 889.178 176.922 889.969 182.945 892.038C190.551 894.654 197.913 898.062 205.397 901.043C215.01 904.876 223.589 909.865 227.422 920.27C227.726 921.122 228.335 921.852 228.882 922.582C231.012 925.563 233.324 926.111 236.123 923.251C237.644 921.669 239.287 920.087 241.112 918.931C245.98 915.889 249.934 917.958 249.265 923.555C248.231 932.925 246.345 942.052 235.758 946.129C230.829 948.015 230.099 951.483 232.716 955.864C235.697 960.853 238.678 965.842 241.599 970.832C246.345 979.046 248.352 979.411 255.836 973.326C256.384 972.839 256.931 972.17 257.601 972.048C259.669 971.683 262.407 970.71 263.624 971.623C264.841 972.535 265.389 975.821 264.719 977.464C261.738 985.313 258.878 993.283 249.874 996.812C245.31 998.577 241.66 1002.17 241.903 1007.64C242.572 1022.98 237.34 1036.79 231.986 1050.66C228.457 1059.73 230.829 1064.84 240.443 1066.54C252.794 1068.73 265.267 1070.13 277.74 1071.83H277.862L278.105 1071.96ZM538.638 669.043C538.638 664.662 538.395 660.221 538.638 655.84C539.977 634.605 521.48 615.256 503.592 610.632C494.83 608.381 492.153 610.085 488.442 618.42C481.567 633.875 473.231 648.721 461.306 660.707C444.391 677.683 426.442 693.563 408.919 709.87C404.721 713.764 402.226 718.205 401.07 723.925C398.758 734.816 395.777 745.585 393.039 756.416C387.198 779.658 381.235 802.84 375.516 826.083C374.907 828.516 374.968 831.193 375.333 833.688C376.246 839.286 381.661 842.815 387.198 841.537C411.414 835.939 434.656 827.725 455.221 813.305C475.908 798.824 493.614 780.997 508.216 760.492C527.625 733.234 539.916 703.298 538.699 668.982L538.638 669.043ZM463.435 608.624V608.32C458.872 608.685 454.187 608.381 449.806 609.415C432.526 613.614 415.308 617.751 398.211 622.68C354.646 635.335 314.429 654.379 280.052 684.863C258.696 703.785 242.633 725.993 234.054 753.252C230.89 763.352 228.274 773.635 229.248 784.465C229.917 791.949 233.811 794.991 241.112 792.922C242.877 792.436 244.641 791.827 246.223 791.036C272.933 778.198 301.773 769.862 325.807 751.731C332.317 746.802 340.592 742.482 344.303 735.85C352.334 721.613 359.027 706.341 359.149 689.304C359.21 682.49 361.826 680.664 367.728 684.254C376.003 689.243 383.912 694.963 391.579 700.804C397.724 705.489 400.401 706.036 406.607 701.351C412.326 697.031 417.924 692.59 423.278 687.844C441.288 671.72 458.933 655.17 472.014 634.544C475.239 629.494 477.977 624.018 480.228 618.481C482.479 612.944 479.802 609.172 473.839 608.746C470.371 608.503 466.842 608.746 463.374 608.746L463.435 608.624ZM802.882 916.741C803.795 922.156 804.768 931.283 806.837 940.044C810.975 957.263 821.014 969.493 838.232 975.273C845.412 977.646 849.61 976.247 853.504 969.615C855.451 966.329 857.216 962.861 858.615 959.332C865.916 940.592 872.609 921.73 876.442 901.773C878.876 889.117 878.754 876.644 878.146 864.11C877.842 858.695 875.834 852.793 872.974 848.047C862.509 830.463 846.751 828.942 833.304 841.72C812.921 861.19 803.977 885.284 802.882 916.741ZM1024.54 904.694C1025.02 920.878 1027.58 933.838 1032.87 945.946C1037.86 957.385 1045.95 966.633 1057.76 971.744C1066.21 975.395 1071.26 973.265 1074.85 964.686C1079.78 952.882 1084.16 940.896 1089.15 929.153C1095.42 914.368 1098.46 898.792 1099.68 882.972C1100.29 874.941 1098.77 866.666 1097.24 858.695C1096.15 852.854 1094.26 846.952 1091.34 841.841C1083.55 828.395 1068.47 826.508 1056.78 836.67C1035.18 855.47 1027.21 880.234 1024.6 904.754L1024.54 904.694ZM54.1392 897.392C53.6525 895.384 53.6525 893.377 52.8007 891.795C50.0627 886.805 50.7928 882.242 54.1392 878.044C55.1127 876.827 57.2423 875.61 58.5808 875.792C59.8586 876.036 61.4405 877.983 61.7447 879.443C62.9616 884.737 64.3001 890.152 64.4218 895.567C64.5435 899.948 66.4905 901.043 70.0195 900.982C76.7731 900.86 83.5876 900.739 90.3413 900.252C91.9232 900.13 93.3835 898.67 96.1823 897.088C86.7515 894.472 79.9978 890.76 75.9821 883.641C74.7653 881.451 73.7918 877.861 74.7653 875.792C77.0773 870.682 82.4924 870.438 87.1166 871.351C89.672 871.898 93.0792 874.271 93.7485 876.523C95.6347 882.911 96.2431 889.665 97.3992 896.48C113.401 898.487 128.064 892.038 144.979 889.848C134.149 882.06 124.596 875.123 115.105 868.248C115.774 871.655 116.991 874.941 116.869 878.226C116.808 879.687 114.192 881.938 112.488 882.12C107.986 882.607 102.51 877.496 101.05 872.02C99.8329 867.274 103.118 864.962 106.708 863.198C109.872 861.616 110.115 859.851 107.986 857.174C106.221 854.923 104.335 852.55 103.179 849.994C98.616 840.198 95.2088 830.159 96.3648 819.085C96.5473 817.686 95.6347 816.165 95.2088 814.705C93.7485 815.131 92.2274 815.556 90.7672 815.922C88.9419 816.408 86.569 817.747 85.2912 817.078C79.146 813.975 73.1225 816.713 67.8899 818.294C57.729 821.337 47.6898 825.717 38.5633 831.193C28.0981 837.46 18.6673 845.735 13.4348 857.113C11.0619 862.346 10.5751 868.674 10.3318 874.576C10.2709 876.583 13.6782 878.774 15.4426 880.843C16.5987 879.261 17.7547 877.679 18.9107 876.097C19.2149 875.671 19.6408 875.367 20.5535 874.515C22.0138 875.793 23.6565 876.949 24.7517 878.47C27.4288 882.425 29.0716 880.721 30.471 877.618C31.0186 876.34 30.7144 874.636 31.3228 873.359C32.3572 871.29 33.4524 869.039 35.156 867.518C35.8861 866.848 39.2325 867.396 39.4151 868.065C40.0235 870.012 40.206 872.385 39.6584 874.332C36.1295 887.231 41.4229 896.236 54.1392 897.027H54.0784L54.1392 897.392ZM778.91 1032.47C797.893 1032.77 811.948 1025.29 824.117 1013.61C828.193 1009.65 828.132 1006.06 823.934 1002.29C821.44 1000.04 818.215 998.394 815.051 997.177C790.896 987.929 773.982 971.744 765.342 947.041C764.186 943.756 760.292 941.383 757.675 938.584C754.937 941.505 752.139 944.364 749.461 947.346C749.036 947.832 749.036 948.745 748.792 949.414C743.134 964.625 743.681 980.506 744.655 996.082C745.933 1016.77 757.858 1034.47 779.032 1032.47H778.91ZM967.769 978.376C969.351 987.32 970.142 996.447 972.636 1005.03C976.165 1017.26 984.562 1026.02 997.156 1028.45C1013.95 1031.74 1029.1 1026.38 1042.12 1015.67C1054.05 1005.82 1052.89 999.915 1038.29 994.439C1013.95 985.373 997.643 968.58 989.125 944.06C988.577 942.478 988.091 940.896 987.178 939.558C983.527 933.777 978.416 933.716 974.644 939.436C973.671 940.957 973.001 942.782 972.758 944.486C971.054 955.62 969.472 966.755 967.83 978.315L967.769 978.376ZM752.747 676.223C750.861 673.971 749.036 670.382 746.176 669.043C744.168 668.13 740.152 669.591 738.084 671.233C735.346 673.424 733.095 676.588 731.452 679.812C722.751 696.91 714.111 714.068 705.897 731.409C694.641 755.077 685.636 779.597 678.457 804.848C677.179 809.411 677.909 812.818 681.742 815.374C685.819 818.051 689.226 816.043 691.964 813.062C696.102 808.438 699.935 803.57 703.829 798.642C718.309 780.328 728.044 759.519 735.772 737.676C739.118 728.245 742.039 718.631 744.655 708.957C747.515 698.553 749.887 688.026 752.808 676.223H752.747ZM391.031 1032.89C391.153 1038.67 395.716 1040.86 401.192 1038.19C435.934 1021.03 463.922 996.265 484.73 963.53C486.738 960.366 488.442 956.655 489.111 953.004C489.476 950.814 488.138 947.589 486.434 946.007C485.217 944.912 481.932 945.094 480.045 945.824C477.247 946.981 474.752 949.049 472.257 950.875C466.599 954.951 461.366 959.636 455.465 963.165C436.177 974.726 420.053 990.119 403.991 1005.51C396.324 1012.94 393.769 1023.46 391.031 1032.83V1032.89ZM192.072 1027.6C191.646 1035.75 195.601 1041.17 201.442 1045.67C203.632 1047.37 205.884 1048.9 208.135 1050.42C215.253 1055.34 219.33 1053.88 221.642 1045.37C223.711 1038 225.536 1030.52 227.422 1023.1C228.7 1017.99 226.266 1014.94 221.094 1013.73C215.862 1012.51 210.629 1010.75 205.701 1008.56C200.712 1006.36 198.156 1006.61 196.209 1011.78C194.323 1016.83 193.35 1022.25 192.011 1027.54L192.072 1027.6ZM269.709 809.046C270.135 808.985 270.865 808.924 271.534 808.742C289.787 803.509 302.808 791.097 315.037 777.468C315.402 777.042 315.706 776.555 315.828 776.008C316.802 772.722 315.402 770.897 312.117 771.14C310.17 771.323 308.284 772.296 306.458 773.087C294.289 778.502 282.06 784.039 269.891 789.515C267.701 790.489 265.206 791.219 263.624 792.861C261.677 794.869 259.243 797.729 259.304 800.163C259.426 804.361 265.632 809.046 269.587 808.924L269.709 809.046ZM239.469 1138.34C239.652 1138.82 239.834 1139.31 240.017 1139.8C247.379 1136.82 254.863 1134.02 262.042 1130.67C264.233 1129.64 265.51 1126.84 267.214 1124.77C265.084 1123.25 263.077 1120.93 260.765 1120.33C250.178 1117.59 239.408 1115.4 228.761 1112.84C225.293 1111.99 221.703 1111.44 220.06 1114.97C218.782 1117.83 217.991 1121.73 218.904 1124.52C221.46 1132.37 231.195 1138.46 239.469 1138.34ZM412.144 1093.31C421.696 1093.37 432.952 1085.28 435.021 1077.74C435.508 1076.03 434.839 1073.29 433.622 1072.02C432.648 1071.04 429.667 1070.92 428.328 1071.65C422.122 1075.18 416.099 1079.01 410.318 1083.21C408.554 1084.49 406.485 1088.02 407.094 1089.17C408.25 1091.36 411.231 1092.58 412.205 1093.25L412.144 1093.31ZM1358.51 989.998C1357.96 989.876 1357.47 989.693 1356.93 989.572C1353.64 997.603 1349.87 1005.45 1347.31 1013.73C1345.3 1020.24 1344.03 1027.23 1343.84 1034.05C1343.72 1038.79 1345.97 1043.6 1347.19 1048.41L1349.44 1048.16L1358.45 989.998H1358.51ZM226.205 992.736H226.327C226.084 990.058 226.51 987.016 225.475 984.704C224.502 982.514 221.703 979.167 220.364 979.471C218.052 980.019 215.193 982.575 214.523 984.826C213.732 987.746 213.976 991.762 215.436 994.318C217.261 997.421 220.851 1001.44 223.65 1001.44C227.726 1001.44 226.205 996.447 226.266 993.344C226.266 993.161 226.266 992.979 226.266 992.796L226.205 992.736ZM246.466 813.488C251.395 812.697 254.984 810.811 255.715 806.673C256.201 804.179 255.106 800.285 253.281 798.703C249.752 795.599 246.162 798.094 243.12 800.771C242.816 801.015 242.511 801.258 242.329 801.562C241.173 803.996 238.617 807.221 239.348 808.803C240.382 810.993 243.972 812.027 246.466 813.549V813.488ZM219.026 933.351C219.817 933.108 220.608 932.804 221.399 932.56C221.764 930.735 222.92 928.484 222.25 927.206C220.182 923.251 217.626 919.54 214.828 916.011C214.097 915.098 211.116 914.611 210.69 915.159C209.778 916.315 208.987 918.749 209.595 919.783C212.455 924.468 215.801 928.849 218.965 933.351H219.026Z" fill="#5B652C"/>
<path d="M2339.49 731.227C2344.97 716.868 2350.08 702.509 2350.14 686.811C2350.14 685.35 2350.14 683.89 2350.08 682.43C2349.11 670.687 2339.01 663.872 2328.6 669.166C2318.75 674.155 2309.13 680.3 2300.68 687.419C2285.1 700.44 2272.81 716.564 2262.95 734.269C2255.65 747.351 2249.14 760.858 2248.78 776.435C2248.53 785.561 2247.25 794.749 2247.8 803.754C2248.53 816.531 2256.38 826.144 2264.66 835.028C2284.43 856.323 2308.95 870.074 2336.94 876.585C2355.37 880.904 2374.54 882.061 2393.34 884.373C2396.75 884.799 2400.34 884.19 2403.68 883.521C2410.01 882.121 2411.53 877.984 2407.88 872.751C2400.7 862.529 2395.96 851.577 2397.72 838.861C2399.73 824.258 2403.81 810.325 2412.2 797.913C2417.86 789.577 2435.51 780.329 2446.09 785.683C2452.05 788.725 2456.01 792.923 2459.23 798.947C2466.72 812.941 2464.16 826.449 2459.42 840.2C2457.41 846.101 2455.4 852.003 2453.51 857.905C2451.75 863.564 2452.97 867.214 2458.44 869.648C2462.46 871.474 2467.08 872.265 2471.46 872.995C2479.56 874.272 2487.83 874.577 2495.74 876.463C2506.63 879.079 2512.35 886.806 2514.48 897.758C2517.89 915.342 2512.35 931.345 2506.81 947.468C2501.95 961.463 2497.44 975.578 2493.19 989.816C2491.3 996.083 2490.14 1002.65 2489.29 1009.1C2488.93 1012.02 2489.47 1015.49 2490.87 1018.05C2494.77 1025.17 2500 1025.65 2506.14 1020.36C2517.34 1010.81 2525.31 998.639 2532.49 986.105C2543.5 966.939 2554.33 947.59 2564.19 927.816C2578 900.131 2594.79 874.82 2618.34 854.559C2638.18 837.522 2660.26 823.711 2686.3 819.208C2707.78 815.497 2728.71 820.06 2745.87 834.054C2761.63 847.014 2765.1 864.963 2761.02 884.433C2758.1 898.306 2754.08 911.631 2745.5 923.374C2736.01 936.334 2724.33 946.982 2710.52 954.587C2686.85 967.669 2661.42 976.613 2635.38 983.853C2630.63 985.131 2625.58 985.314 2620.96 986.956C2612.86 989.877 2610.74 994.805 2613.23 1003.02C2618.4 1020.18 2634.28 1032.1 2652.11 1031.92C2675.17 1031.62 2695.31 1023.1 2713.14 1008.92C2722.26 1001.62 2730.78 993.588 2739.54 985.8C2753.35 973.571 2763.82 958.481 2774.34 943.513C2788.03 924.104 2801.3 904.33 2815.17 884.981C2822.29 875.063 2829.35 864.72 2838.17 856.384C2857.4 838.253 2879.3 824.502 2905.64 818.052C2930.41 811.968 2952.37 818.052 2970.81 833.567C2982.19 843.12 2987.11 858.21 2984.07 873.542C2981.82 885.103 2977.99 896.602 2972.94 907.311C2961.86 930.858 2943.19 947.225 2920 958.725C2895.42 970.954 2869.38 978.925 2842.61 984.705C2834.82 986.409 2832.94 990.12 2834.64 997.726C2836.95 1008.37 2843.4 1016.04 2851.25 1022.92C2855.81 1026.87 2861.11 1028.76 2867.25 1029.18C2888.67 1030.7 2907.84 1024.13 2925.11 1012.15C2936.49 1004.24 2947.38 995.535 2958.09 986.774C2970.81 976.369 2983.77 966.148 2995.45 954.648C3004.82 945.46 3012.49 934.569 3020.88 924.469C3025.57 918.811 3029.95 912.909 3034.94 907.615C3038.53 903.843 3042.85 900.74 3046.92 897.393C3047.59 896.785 3048.63 896.542 3049.18 895.872C3057.94 885.955 3066.7 875.976 3075.4 866.058C3075.7 865.633 3076.01 865.146 3076.25 864.659C3079.6 858.575 3077.59 854.741 3070.84 854.072C3062.44 853.22 3061.22 851.456 3064.14 843.668C3065.66 839.652 3064.26 836.792 3061.28 834.541C3055.69 830.16 3055.08 824.745 3057.08 818.356C3057.82 816.044 3057.57 813.367 3057.33 810.872C3057.02 807.587 3055.87 804.423 3055.81 801.137C3055.81 799.008 3056.42 796.148 3057.82 794.87C3058.91 793.958 3061.95 794.688 3063.84 795.479C3083.73 803.632 3090.31 820.425 3092.13 840.078C3092.31 842.451 3092.13 844.885 3092.86 847.136C3094.75 853.585 3099.8 855.289 3105.64 852.003C3114.34 847.075 3122.8 841.234 3132.11 837.827C3140.68 834.663 3150.24 833.507 3159.48 832.837C3177.43 831.56 3188.02 847.197 3189.48 861.556C3191.31 879.201 3186.07 895.69 3181.21 912.118C3175.12 932.622 3167.94 952.823 3161.98 973.388C3159.24 982.819 3158.88 992.858 3156.44 1002.35C3151.58 1021.33 3153.04 1040.56 3153.64 1059.67C3154.07 1071.96 3156.2 1084.37 3158.63 1096.48C3161.43 1110.23 3164.47 1124.04 3168.86 1137.36C3179.62 1170.04 3200.37 1195.53 3229.09 1214.03C3244.73 1224.13 3265.41 1222.3 3274.84 1201.8C3282.88 1184.27 3289.87 1166.33 3287.5 1146.43C3286.47 1137.73 3284.7 1129.15 3283 1120.57C3278.13 1095.75 3263.41 1075.97 3249.17 1056.01C3233.84 1034.54 3219.48 1012.51 3208.77 988.234C3201.95 972.84 3199.58 957.203 3200.86 940.715C3201.04 937.977 3202.2 935.239 3202.74 933.231C3203.23 941.323 3203.05 949.963 3204.57 958.299C3208.89 982.515 3218.87 1004.3 3234.93 1023.1C3245.21 1035.21 3254.77 1048.04 3265.6 1059.6C3278.43 1073.23 3288.29 1088.81 3297.66 1104.69C3311.17 1127.57 3314.7 1152.27 3308.86 1178.25C3307.15 1185.74 3305.63 1193.28 3304.05 1200.76C3300.82 1215.97 3293.28 1229.24 3284.21 1241.47C3273.81 1255.58 3259.45 1262.22 3241.26 1261C3224.41 1259.9 3208.22 1257.41 3193.5 1248.34C3176.7 1238 3163.44 1224.07 3151.09 1208.98C3132.71 1186.53 3119.63 1161.28 3112.51 1133.35C3108.07 1115.89 3104.36 1098.12 3104.42 1079.93C3104.54 1060.94 3103.87 1041.9 3104.73 1022.92C3105.21 1011.54 3108.13 1000.28 3109.59 988.903C3113.85 956.473 3128.27 927.025 3135.94 895.629C3137.82 888.023 3136.97 879.627 3136.36 871.656C3136.06 867.397 3132.23 864.172 3127.72 865.024C3123.59 865.815 3119.21 867.458 3116.04 870.135C3095.05 887.962 3078.81 909.562 3068.77 935.299C3063.53 948.503 3060.13 962.436 3056.23 976.187C3053.07 987.443 3050.15 998.76 3047.71 1010.2C3045.65 1020.18 3044.19 1030.28 3043.21 1040.38C3042.36 1048.84 3041.51 1050.3 3032.87 1049.93C3021.07 1049.44 3006.04 1041.47 3000.32 1026.81C2995.94 1015.43 2999.53 1005.57 3001.84 995.292C3002.87 990.546 3003.6 986.591 2998.92 983.732C2994.05 980.811 2990.89 984.279 2988.03 987.321C2974.82 1001.13 2960.4 1013.48 2944.28 1023.83C2922.13 1038 2898.71 1049.57 2872.49 1052.67C2848.94 1055.47 2825.27 1055.41 2803.85 1041.84C2789.8 1032.95 2782.8 1020.06 2779.09 1004.54C2778.3 1001.19 2777.39 997.726 2775.62 994.866C2772.34 989.634 2768.99 989.573 2764.3 993.649C2756.09 1000.89 2748.06 1008.5 2739.42 1015.19C2716.6 1032.95 2691.54 1046.58 2663 1052.36C2649.68 1055.1 2635.74 1056.62 2622.17 1056.14C2604.53 1055.53 2587.49 1050.05 2574.29 1037.94C2567.78 1032.04 2564.07 1023.04 2559.2 1015.37C2558.53 1014.34 2558.65 1012.75 2557.92 1011.78C2555.61 1008.68 2553.54 1004.11 2550.5 1003.26C2548.19 1002.65 2543.87 1006.3 2541.68 1009.1C2535.78 1016.59 2530.48 1024.5 2525.19 1032.41C2518.37 1042.69 2509.19 1050.11 2497.69 1054.19C2493.85 1055.59 2488.74 1055.77 2484.97 1054.37C2462.22 1046.04 2448.95 1029.36 2444.45 1005.82C2442.93 998.03 2440.86 989.694 2442.08 982.089C2444.45 967.547 2448.89 953.37 2452.6 939.072C2455.04 929.884 2458.08 920.818 2460.27 911.631C2462.82 900.801 2459.3 893.195 2446.82 893.499C2443.96 893.499 2441.1 892.343 2438.24 891.917C2435.93 891.613 2433.13 890.822 2431.31 891.735C2421.33 896.724 2410.56 896.541 2400.03 895.811C2380.56 894.534 2360.85 893.438 2341.68 890.092C2314.67 885.468 2290.64 873.299 2269.89 855.228C2265.45 851.395 2260.88 847.683 2256.87 843.424C2241.11 826.631 2234.3 806.796 2235.94 783.736C2238.07 753.192 2249.99 726.603 2268.79 703.239C2278.35 691.374 2290.15 681.03 2302.14 671.539C2309.25 665.88 2318.44 662.534 2327.14 659.248C2335.78 656.023 2344.18 659.857 2351.97 663.325C2354.4 664.42 2356.47 668.801 2356.83 671.965C2358.96 693.382 2353.31 712.852 2341.01 730.436C2340.59 731.045 2340.47 731.836 2340.22 732.505C2339.86 732.079 2339.49 731.653 2339.13 731.288L2339.37 731.105L2339.49 731.227ZM2737.72 877.558V873.177C2737.53 857.053 2722.93 845.128 2707.17 848.961C2700.91 850.482 2694.46 853.038 2689.35 856.81C2678.94 864.537 2669.02 872.934 2659.65 881.939C2649.92 891.309 2640.43 901.105 2634.83 913.761C2629.78 925.26 2625.03 936.881 2620.11 948.503C2618.4 952.518 2617.55 956.595 2620.59 960.428C2623.82 964.505 2628.2 964.444 2632.64 963.47C2640.49 961.645 2648.34 959.941 2656 957.447C2679.43 949.963 2701.39 939.863 2717.94 920.697C2728.77 908.163 2738.51 895.385 2737.72 877.619V877.558ZM2961.74 875.915C2961.93 851.882 2943.49 839.652 2923.29 848.9C2919.64 850.604 2915.99 852.368 2912.76 854.741C2897.74 865.815 2883.25 877.132 2871.57 892.222C2858.49 909.075 2849.61 927.572 2842.91 947.347C2839.69 956.96 2843.83 961.767 2853.93 961.341C2856.85 961.219 2859.77 960.672 2862.57 959.881C2868.23 958.299 2873.76 956.534 2879.36 954.77C2903.76 946.982 2925.84 935.239 2943.49 916.133C2954.5 904.208 2960.22 890.153 2961.8 875.915H2961.74Z" fill="#5B652C"/>
<path d="M2028.03 977.22C2025.35 970.162 2025.53 962.739 2027.54 955.621C2031.8 940.957 2038.86 928.18 2053.58 921.365C2062.04 917.471 2064.72 910.9 2065.14 901.591C2065.75 889.118 2068.06 876.645 2070.74 864.415C2074.57 846.952 2078.77 829.49 2084 812.393C2088.93 796.147 2094.9 780.145 2101.34 764.387C2112.66 736.52 2126.05 709.627 2142.48 684.437C2152.7 668.678 2164.44 653.893 2176.06 639.047C2182.88 630.285 2190.3 621.828 2198.21 613.979C2218.41 593.961 2241.77 578.142 2267.51 566.155C2288.2 556.481 2310.77 553.865 2333.04 556.907C2349.71 559.158 2366.5 563.539 2381.1 573.213C2403.43 587.998 2415.72 608.807 2418.34 635.396C2418.58 637.891 2419.5 640.385 2419.98 642.88C2420.53 645.557 2421.57 648.356 2421.2 650.912C2416.45 683.768 2410.61 716.319 2392.97 745.281C2391.57 747.593 2389.8 749.662 2388.04 752.035C2405.38 749.784 2415.97 737.189 2428.2 727.332C2430.63 725.385 2432.7 723.012 2435.19 721.248C2461.9 702.264 2485.82 680.117 2507.66 655.901C2523.54 638.317 2538.26 619.455 2547.76 597.247C2560.05 568.467 2561.14 539.81 2546.23 511.578C2544.1 507.562 2540.27 504.337 2536.99 500.93C2535.28 499.105 2533.09 497.766 2531.08 496.245C2531.27 495.637 2531.45 495.089 2531.63 494.48C2533.34 494.967 2535.28 495.028 2536.74 495.941C2546.84 502.329 2553.54 511.395 2557.67 522.651C2562.6 536.098 2567.29 549.484 2564.79 564.269C2561.38 584.409 2554.69 603.149 2544.23 620.794C2529.38 645.922 2509.3 666.853 2490.2 690.704C2496.1 687.662 2500.84 685.654 2505.1 682.916C2545.99 656.327 2584.2 626.513 2615.84 589.094C2630.14 572.179 2639.93 552.769 2639.51 529.709C2639.39 524.72 2638.29 519.731 2637.68 514.742C2638.29 514.559 2638.9 514.437 2639.51 514.255C2640.85 519.244 2643.04 524.233 2643.46 529.344C2645.11 550.214 2639.26 568.893 2626.24 585.443C2621.98 590.858 2618.52 596.943 2614.74 602.723C2607.14 614.587 2597.28 624.444 2586.45 633.206C2570.51 646.044 2554.39 658.7 2537.66 670.504C2501.7 695.815 2465.37 720.578 2429.17 745.525C2398.02 767.064 2366.81 788.542 2335.71 810.142C2330.91 813.488 2326.1 813.488 2321.23 810.872C2318.37 809.351 2317.46 806.613 2320.63 804.97C2333.04 798.581 2339.37 786.838 2346.97 776.19C2362 754.895 2375.38 732.687 2384.75 708.227C2392.06 689.244 2396.68 669.834 2394.37 649.269C2392.66 634.301 2386.76 621.706 2375.32 611.667C2372.04 608.746 2369.24 605.217 2365.65 602.723C2350.5 592.379 2333.46 590.919 2316.24 594.387C2297.87 598.099 2283.21 608.807 2270.37 622.132C2265.81 626.878 2261.24 631.685 2256.37 636.187C2238.79 652.311 2225.22 671.66 2212.45 691.495C2197.11 715.163 2182.69 739.379 2170.77 764.995C2157.69 793.044 2145.88 821.641 2138.03 851.698C2133.59 868.491 2129.33 885.284 2125.5 902.199C2122.76 914.368 2124.77 918.019 2136.33 923.373C2165.96 937.002 2178.31 961.097 2179.89 992.553C2180.68 1008.98 2175.15 1022.31 2163.71 1033.44C2156.71 1040.26 2154.64 1046.04 2167.97 1051.51C2173.14 1053.64 2179.22 1054.13 2184.94 1054.55C2191.64 1055.04 2198.45 1054.92 2205.2 1054.55C2216.95 1053.88 2226.56 1047.86 2235.02 1040.56C2258.69 1020.24 2275.18 994.196 2291.3 967.972C2297.26 958.298 2303.59 948.867 2309.13 939.01C2313.51 931.222 2317.46 923.13 2320.44 914.794C2322.63 908.71 2326.41 905.363 2332.19 903.781C2342.23 900.982 2352.08 898.914 2362.79 901.834C2373.62 904.816 2376.72 909.196 2373.8 919.966C2370.7 931.405 2368.33 943.087 2365.47 954.647C2354.88 997.603 2345.94 1041.05 2329.57 1082.36C2321.96 1101.53 2313.93 1120.63 2305.11 1139.31C2296.77 1156.83 2287.53 1173.87 2278.03 1190.78C2269.15 1206.6 2256.86 1219.99 2242.87 1231.19C2222.55 1247.49 2198.82 1255.28 2172.59 1251.69C2158.11 1249.74 2145.4 1242.38 2133.11 1234.59C2122.46 1227.9 2114.85 1218.35 2107.67 1208.43C2104.57 1204.17 2102.56 1199.18 2100.19 1194.44C2098.12 1190.36 2095.69 1186.34 2094.41 1182.02C2091.79 1173.14 2088.99 1164.2 2087.84 1155.07C2086.74 1146.61 2086.99 1137.79 2087.84 1129.33C2088.51 1122.7 2090.27 1115.95 2092.95 1109.86C2098.67 1096.96 2105.12 1084.43 2111.51 1071.89C2116.01 1063.07 2115.46 1061.92 2107.85 1056.14C2096.29 1047.37 2086.92 1036.36 2081.51 1023.04C2075.55 1008.19 2070.5 992.857 2066.48 977.281C2063.62 966.451 2063.13 954.951 2061.67 943.756C2061.37 941.566 2061.67 939.314 2061.25 937.185C2060.28 931.465 2056.56 929.579 2051.76 932.865C2038.98 941.626 2031.62 953.795 2030.1 969.311C2029.85 971.927 2030.1 974.604 2030.1 977.22C2029.43 977.22 2028.82 977.342 2028.15 977.342L2028.03 977.22ZM2094.35 1143.75C2094.83 1150.87 2094.1 1158.29 2096.05 1164.99C2100.37 1179.53 2105.3 1193.95 2115.46 1205.81C2129.45 1222.18 2145.4 1233.98 2168.46 1233.25C2180.5 1232.89 2192.31 1231.61 2201.55 1223.88C2211.47 1215.55 2221.21 1206.54 2228.93 1196.32C2249.26 1169.61 2263.01 1139.19 2274.45 1107.85C2277.61 1099.15 2279.8 1090.03 2282.05 1080.96C2288.26 1055.95 2294.34 1031.01 2300.06 1005.88C2300.61 1003.44 2298.6 999.185 2296.47 997.725C2294.65 996.508 2290.69 997.603 2288.07 998.699C2286.07 999.55 2284.67 1001.92 2283.09 1003.69C2272.01 1016.34 2261.42 1029.42 2249.8 1041.59C2229.48 1062.83 2203.74 1073.29 2174.78 1074.69C2163.16 1075.24 2151.18 1072.56 2139.74 1069.95C2127.39 1067.09 2124.16 1066.66 2118.26 1075.61C2104.63 1096.23 2092.4 1117.53 2094.23 1143.75H2094.29H2094.35ZM2121.36 959.758H2121.97C2121.97 967.79 2121.18 975.943 2122.21 983.852C2123.25 991.945 2125.93 999.855 2128.36 1007.76C2131.28 1017.13 2135.84 1025.59 2143.21 1032.41C2147.16 1036.06 2151.36 1036.36 2155.62 1033.32C2157.93 1031.62 2160 1029.49 2162.01 1027.36C2170.83 1018.23 2171.92 1006.73 2172.53 994.805C2174.05 966.268 2159.21 945.825 2134.81 933.291C2126.47 929.032 2121.42 932.682 2121.3 942.235C2121.18 948.076 2121.3 953.978 2121.3 959.819L2121.36 959.758Z" fill="#5B652C"/>
<path d="M1647.15 780.379C1648.79 781.352 1650.5 782.265 1651.96 783.421C1653.96 785.064 1655.91 786.707 1657.55 788.654C1669.11 802.77 1684.02 802.587 1700.14 799.423C1714.75 796.503 1729.59 795.773 1744.01 800.883C1754.17 804.473 1758.07 810.375 1758.43 821.084C1758.68 827.777 1758.86 834.713 1760.56 841.102C1762.69 849.133 1766.83 850.289 1774.25 846.517C1781.8 842.684 1789.16 838.546 1796.89 835.2C1810.94 829.054 1825.3 824.309 1841.06 828.629C1846.9 830.271 1848.12 825.769 1848.79 821.206C1853.47 821.875 1853.65 824.674 1853.53 828.324C1853.53 831.184 1853.77 834.713 1855.36 836.843C1866.61 851.628 1868.32 867.873 1863.51 885.214C1854.75 916.914 1845.74 948.614 1837.29 980.436C1835.03 989.015 1834.18 998.02 1833.09 1006.84C1832.48 1011.65 1834.91 1015.54 1839.35 1017.43C1843.67 1019.19 1847.75 1017.43 1850.18 1014.02C1860.83 999.419 1872.58 985.303 1881.09 969.483C1896.3 941.312 1909.51 912.046 1923.56 883.267C1924.84 880.651 1925.69 877.608 1927.52 875.479C1929.1 873.653 1931.96 871.463 1933.91 871.767C1936.28 872.132 1939.56 874.688 1940.05 876.757C1940.84 880.225 1940.54 884.545 1939.14 887.891C1931.72 905.597 1924.29 923.303 1916.02 940.704C1908.17 957.254 1899.95 973.682 1890.77 989.501C1882.43 1003.86 1873.31 1017.98 1863.21 1031.12C1856.88 1039.33 1847.51 1045.11 1836.86 1046.76C1832.36 1047.43 1827.43 1044.87 1822.62 1044.2C1820.07 1043.84 1817.39 1044.2 1814.71 1044.32C1815.87 1046.76 1816.36 1049.98 1818.24 1051.5C1824.87 1056.8 1832.11 1059.96 1840.27 1052.78C1841.48 1058.8 1838.2 1061.66 1834.37 1063.79C1822.87 1070.24 1804.92 1064.04 1796.89 1050.83C1789.89 1039.33 1786.48 1026.68 1785.87 1013.35C1784.29 980.679 1792.38 949.587 1801.75 918.678C1805.28 906.996 1808.81 895.253 1812.34 883.571C1814.41 876.878 1812.64 870.733 1809.05 865.257C1805.1 859.112 1798.95 858.077 1793.54 863.006C1776.5 878.643 1760.07 894.645 1748.94 915.454C1741.46 929.448 1738.11 944.537 1733.18 959.262C1726.79 978.367 1721.8 997.837 1718.7 1017.73C1717.3 1026.68 1715.72 1035.68 1714.32 1044.63C1713.59 1049.13 1710.55 1050.28 1706.71 1049.86C1688.83 1048.16 1672.58 1034.34 1671.12 1015.36C1670.76 1011.04 1669.24 1006.54 1667.23 1002.7C1665.46 999.419 1661.93 999.48 1659.32 1002.28C1655.91 1005.87 1652.38 1009.46 1649.77 1013.53C1643.01 1024.12 1634.86 1033.37 1625.25 1041.52C1617.7 1047.91 1609.55 1050.41 1599.81 1049.13C1597.14 1048.76 1593.48 1049.13 1591.6 1050.77C1584.72 1056.43 1576.81 1057.28 1568.72 1056.25C1547.49 1053.51 1527.41 1040.98 1528.2 1015.12C1529.11 987.311 1537.39 962.426 1556.25 941.982C1567.69 929.57 1573.65 915.454 1577.24 899.391C1580.34 885.518 1585.39 872.132 1589.35 858.442C1592.94 845.969 1596.47 833.435 1599.63 820.84C1600.79 816.216 1603.1 814.208 1607.54 814.269C1630.05 814.573 1639.12 824.369 1640.58 845.239C1640.94 850.472 1639.73 855.765 1639.48 861.059C1639.18 866.778 1639.36 872.254 1640.46 878.095C1641.61 884.362 1637.96 891.724 1635.83 898.417C1635.04 900.912 1632.73 902.92 1631.27 905.232C1630.23 906.935 1628.59 908.761 1628.59 910.525C1628.83 925.31 1619.04 937.053 1616.48 951.048C1614.05 964.859 1609.73 978.367 1606.51 992.057C1605.41 996.863 1605.05 1001.85 1604.68 1006.72C1604.32 1011.77 1606.81 1015.66 1611.25 1017.85C1615.81 1020.05 1620.32 1018.65 1623.24 1015.12C1630.42 1006.6 1637.54 997.959 1643.86 988.893C1664.79 958.836 1680.07 925.736 1694.12 892.028C1694.12 891.846 1694.3 891.663 1694.3 891.542C1695.64 875.54 1706.96 868.603 1720.22 863.736C1734.28 858.564 1743.22 848.22 1748.94 835.078C1751.19 829.967 1751.68 823.761 1751.5 818.042C1751.25 811.166 1743.4 804.656 1734.34 804.595C1722.35 804.412 1710.3 805.629 1698.32 806.481C1685.78 807.333 1673.43 810.132 1661.57 802.222C1657.61 799.606 1651.16 799.241 1646.18 800.032C1630.3 802.405 1619.65 794.556 1612.35 782.448C1603.52 767.784 1592.75 753.851 1589.23 736.571C1587.52 728.418 1587.22 719.899 1587.1 711.564C1586.97 705.053 1590.63 703.106 1596.59 705.966C1606.99 710.894 1614.11 719.048 1618.67 729.513C1620.99 734.867 1623.18 740.343 1624.7 746.002C1625.49 749.044 1624.45 752.451 1624.88 755.676C1625.25 758.718 1625.73 762.126 1627.31 764.559C1629.99 768.575 1630.23 771.617 1626.64 775.085C1625.49 776.241 1624.21 777.276 1622.93 778.371C1620.01 780.866 1620.07 783.482 1622.32 786.524C1627.25 793.095 1634.19 796.381 1642.04 797.233C1644.35 797.537 1647.76 795.59 1649.28 793.643C1650.31 792.304 1649.4 789.019 1648.73 786.768C1648.18 784.942 1646.78 783.421 1645.75 781.778L1647.03 780.44H1646.91L1647.15 780.379ZM1582.53 1037.93C1578.64 1036.96 1574.56 1035.8 1570.43 1034.83C1566.35 1033.86 1562.15 1033.07 1558.01 1032.21C1557.28 1037.02 1559.05 1039.76 1563.73 1039.64C1570.06 1039.45 1576.39 1038.54 1582.53 1037.93Z" fill="#5B652C"/>
<path d="M1346.64 1171.31C1336.29 1171.24 1329.6 1163.7 1329.6 1152.02C1329.6 1141.98 1338.48 1132.73 1348.28 1132.61C1358.75 1132.49 1368.66 1142.71 1368.42 1153.3C1368.18 1163.46 1358.68 1171.31 1346.7 1171.31H1346.64Z" fill="#5B652C"/>
<path d="M1623.85 717.231C1631.4 716.5 1637.42 721.49 1640.58 730.251C1645.03 742.603 1642.29 756.049 1632.98 762.255C1632.49 757.692 1631.03 753.433 1631.88 749.722C1633.95 740.351 1630.67 732.563 1626.65 724.654C1625.49 722.402 1624.83 719.847 1623.85 717.17V717.231Z" fill="#5B652C"/>
<path d="M173.942 930.609C166.336 930.001 160.069 924.586 160.921 918.258C161.165 916.311 163.294 913.451 165.059 912.964C172.36 911.078 179.174 913.147 185.198 917.406C188.118 919.475 187.327 924.89 183.494 927.141C180.635 928.845 177.167 929.514 173.942 930.67V930.609Z" fill="#5B652C"/>
<path d="M122.774 913.34C129.284 913.401 130.501 915.165 130.379 920.398C130.197 927.517 128.189 932.81 120.766 935.609C115.29 937.678 113.647 933.418 111.396 930.741C110.24 929.403 110.422 926.3 110.97 924.292C111.639 922.162 113.83 920.519 114.742 918.39C116.629 914.131 119.792 912.914 122.774 913.34Z" fill="#5B652C"/>
<path d="M1157.36 825.415C1164.47 825.536 1168.31 828.883 1168.25 834.785C1168.25 839.531 1165.57 841.964 1160.52 841.721C1153.64 841.478 1150.05 837.705 1150.05 831.134C1150.05 825.962 1153.28 825.232 1157.36 825.354V825.415Z" fill="#5B652C"/>
<path d="M1018.33 815.379C1018.33 820.976 1015.9 823.836 1010.73 824.019C1006.77 824.201 1003.31 819.759 1003.24 814.405C1003.24 809.416 1006.47 807.895 1010.73 807.712C1015.96 807.469 1018.21 809.842 1018.27 815.318L1018.33 815.379Z" fill="#5B652C"/>
<path d="M1944.98 862.476C1940.35 862.476 1937.61 859.677 1937.55 854.992C1937.55 850.307 1940.35 847.387 1944.92 847.387C1949.42 847.387 1952.46 850.672 1952.34 855.601C1952.22 859.921 1949.48 862.476 1944.98 862.476Z" fill="#5B652C"/>
<path d="M784.696 810.446C784.94 806.187 786.035 802.597 791.085 802.476C795.101 802.354 797.778 805.883 797.717 810.872C797.717 815.679 794.675 819.025 790.537 818.721C785.366 818.295 784.879 814.34 784.635 810.507L784.696 810.446Z" fill="#5B652C"/>
<path d="M1986.36 781.98C1986.6 786.117 1984.11 788.125 1979.79 788.247C1975.22 788.429 1973.16 785.995 1973.03 781.615C1972.85 776.382 1975.59 772.975 1980.03 772.975C1984.05 772.975 1986.36 776.017 1986.42 781.98H1986.36Z" fill="#5B652C"/>
<path d="M1967.5 823.65C1967.5 828.213 1964.58 830.951 1959.71 830.951C1954.78 830.951 1953.44 827.848 1953.5 823.711C1953.56 819.208 1955.81 816.47 1960.5 816.227C1964.7 816.044 1967.5 819.026 1967.44 823.65H1967.5Z" fill="#5B652C"/>
<path d="M2011.91 714.383C2011.91 719.433 2009.42 722.353 2005.4 722.11C2000.29 721.745 1999.38 718.094 1999.26 713.957C1999.14 709.698 2001.14 707.507 2005.52 707.446C2010.33 707.385 2011.97 710.063 2011.91 714.383Z" fill="#5B652C"/>
<path d="M89.6716 778.622C89.7933 777.161 89.4283 775.336 90.1584 774.362C91.4969 772.659 93.3223 770.773 95.2693 770.286C96.7295 769.86 99.5892 771.077 100.258 772.355C101.11 773.936 100.502 776.37 100.198 778.439C100.076 779.169 98.6765 779.838 98.6157 780.569C98.1898 784.341 96.1819 786.714 92.5921 785.193C90.7668 784.463 89.9758 781.36 88.759 779.291C89.0632 779.047 89.3674 778.865 89.6716 778.682V778.622Z" fill="#5B652C"/>
<path d="M1254.23 901.966C1254.29 906.651 1251.67 909.632 1247.59 909.51C1243.88 909.389 1241.81 907.381 1242 903.608C1242.18 899.471 1243.52 896.064 1248.45 895.82C1252.77 895.577 1254.16 898.193 1254.23 901.966Z" fill="#5B652C"/>
<path d="M1650.55 858.387C1651.1 849.199 1651.71 839.586 1652.32 829.182C1659.86 836.848 1657.12 847.678 1650.55 858.387Z" fill="#5B652C"/>
<path d="M121.187 786.954C121.248 793.221 118.449 797.055 115.042 796.142C113.156 795.655 110.661 792.674 110.783 790.97C111.026 787.502 112.365 783.243 117.172 783.73C118.936 783.912 120.518 786.346 121.187 787.015V786.954Z" fill="#5B652C"/>
<path d="M2048.85 1030.82C2042.88 1030.76 2041.73 1027.96 2041.48 1024.62C2041.24 1021.45 2043.07 1019.87 2046.23 1020.06C2049.88 1020.24 2052.44 1022.18 2051.95 1025.84C2051.71 1027.9 2049.58 1029.73 2048.85 1030.82Z" fill="#5B652C"/>
<path d="M124.41 849.644C126.053 845.506 127.27 841.125 129.582 837.536C130.556 836.015 134.085 835.528 136.397 835.71C137.674 835.832 139.5 838.083 139.865 839.604C141.203 844.776 143.333 849.826 140.656 855.485C138.77 859.5 137.37 864.368 132.442 862.908C129.521 862.056 127.635 857.493 125.627 854.329C124.958 853.294 125.384 851.469 125.262 850.009C124.958 849.887 124.654 849.705 124.35 849.583L124.41 849.644Z" fill="#5B652C"/>
<path d="M127.033 825.054C127.033 831.139 124.113 834.485 119.61 834.242C114.743 833.998 115.169 830.165 115.047 827.062C114.865 821.039 116.507 819.213 121.314 819.152C125.877 819.152 127.642 821.221 127.033 825.054Z" fill="#5B652C"/>
<path d="M98.492 847.021C97.2142 849.333 96.6058 851.828 95.2673 852.376C93.807 852.923 91.6166 851.767 89.8522 851.159C85.1064 849.455 82.125 846.291 82.8551 840.998C83.1594 839.111 84.6196 836.556 86.1407 836.008C88.0269 835.278 91.4341 835.582 92.5901 836.86C95.0847 839.781 96.545 843.492 98.5528 847.082L98.492 847.021Z" fill="#5B652C"/>
<path d="M24.813 852.856C24.813 848.84 31.445 842.573 35.2782 843.486C36.6776 843.851 38.3204 846.042 38.5637 847.563C39.1722 851.457 34.2438 857.176 30.2281 857.845C26.395 858.454 24.8739 856.446 24.8739 852.856H24.813Z" fill="#5B806C"/>
<path d="M1422.04 429.428C1430.94 444.652 1442.44 448.956 1453.36 448.956C1459.11 448.956 1465.14 448.379 1470.31 446.646V470.217C1464.28 471.66 1457.66 472.527 1451.07 472.527C1427.79 472.527 1415.74 463.917 1401.94 443.208L1400.78 441.476L1412.57 414.755H1413.43L1422.04 429.402M1401.94 358.428L1400.78 360.16L1412.57 386.592H1413.43L1422.04 372.523C1431.23 357.588 1442.44 352.417 1453.36 352.417C1459.11 352.417 1465.14 352.995 1470.31 354.727V330.868C1464.28 329.424 1457.66 328.847 1451.07 328.847C1427.79 328.847 1415.74 337.745 1401.94 358.454M1388.16 363.047C1375.8 335.75 1360.28 328.847 1338.44 328.847C1331.83 328.847 1324.66 330.002 1319.2 331.419V354.412C1323.22 352.968 1328.39 352.391 1333.56 352.391C1346.21 352.391 1355.4 357.273 1363.72 373.94L1377.06 400.792L1363.72 427.669C1355.4 444.337 1346.19 448.93 1333.56 448.93C1328.39 448.93 1323.22 448.064 1319.2 446.62V469.902C1323.22 471.057 1328.97 472.5 1338.44 472.5C1360.28 472.5 1376.08 465.308 1388.16 438.588L1405.4 400.66L1388.16 363.021V363.047ZM1242.77 390.634C1253.22 390.634 1266.34 390.424 1281.28 389.479V384.597C1281.28 359.032 1272.96 350.107 1247.36 350.107H1242.77C1216.92 350.107 1206.29 361.315 1206.29 385.725V389.663C1218.36 390.345 1230.8 390.608 1242.77 390.608M1248.52 326.537C1289.89 326.537 1308 342.338 1308 383.416V409.27C1286.45 411.291 1265.19 411.842 1245.63 411.842C1232.77 411.842 1219.44 411.842 1206.26 410.949V415.858C1206.26 444.888 1222.64 450.636 1255.4 450.636H1257.71C1271.78 450.636 1287.58 447.486 1303.69 441.449V465.02C1296.21 468.091 1288 470.427 1278.99 472.054C1269.99 473.681 1261.85 474.495 1254.58 474.495H1250.86C1200.56 474.495 1179.02 457.539 1179.02 412.997V388.009C1179.02 344.333 1199.7 326.511 1243.66 326.511H1248.55M1961.44 390.293L1945.35 387.432C1921.49 383.127 1916.03 381.972 1916.03 368.769V367.615C1916.03 352.102 1930.67 350.081 1949.65 350.081H1951.38C1964.04 350.081 1984.14 352.653 2001.96 358.402V335.12C1988.18 329.949 1966.35 326.511 1949.97 326.511H1948.23C1915.19 326.511 1889.05 335.12 1889.05 367.037V372.208C1889.05 398.928 1904.56 406.697 1932.43 410.136L1948.81 412.157C1974.09 415.307 1978.97 419.349 1978.97 431.974V433.706C1978.97 449.507 1965.48 451.24 1945.06 451.24H1943.04C1929.26 451.24 1907.42 447.224 1891.59 441.187V465.886C1904.82 471.057 1929.23 474.784 1944.46 474.784H1945.9C1982.96 474.784 2005.67 466.175 2005.67 434.835V429.953C2005.67 402.078 1991.6 395.752 1961.41 390.293M2091 390.293L2074.91 387.432C2051.05 383.127 2045.59 381.972 2045.59 368.769V367.615C2045.59 352.102 2060.23 350.081 2079.21 350.081H2080.94C2093.6 350.081 2113.7 352.653 2131.52 358.402V335.12C2117.74 329.949 2095.91 326.511 2079.53 326.511H2077.79C2044.75 326.511 2018.61 335.12 2018.61 367.037V372.208C2018.61 398.928 2034.12 406.697 2061.99 410.136L2078.37 412.157C2103.65 415.307 2108.53 419.349 2108.53 431.974V433.706C2108.53 449.507 2095.04 451.24 2074.62 451.24H2072.6C2058.82 451.24 2036.98 447.224 2021.15 441.187V465.886C2034.38 471.057 2058.79 474.784 2074.01 474.784H2075.46C2112.52 474.784 2135.22 466.175 2135.22 434.835V429.953C2135.22 402.078 2121.16 395.752 2090.97 390.293M1595.02 385.699C1595.02 359.845 1587.25 351.498 1561.68 351.498H1561.11C1548.14 351.498 1529.14 357.352 1515.41 371.053V442.315C1530.66 447.486 1544.23 449.77 1556.77 449.77C1586.93 449.77 1594.99 442.001 1594.99 413.863V385.699H1595.02ZM1570.32 327.377C1607.09 327.377 1622.03 343.178 1622.03 381.106V411.842C1622.03 455.229 1605.65 473.918 1563.13 473.918H1560.82C1546.35 473.918 1531.37 471.135 1515.41 465.86V516.15H1488.4V328.847H1515.12V346.669C1529.03 334.831 1549.71 327.403 1569.43 327.403H1570.29M1807.07 390.608C1817.52 390.608 1830.64 390.398 1845.58 389.453V384.571C1845.58 359.005 1837.26 350.081 1811.67 350.081H1807.07C1781.22 350.081 1770.59 361.289 1770.59 385.699V389.636C1782.66 390.319 1795.1 390.581 1807.07 390.581M1812.82 326.511C1854.19 326.511 1872.3 342.312 1872.3 383.389V409.243C1850.75 411.264 1829.49 411.816 1809.93 411.816C1797.07 411.816 1783.74 411.816 1770.56 410.923V415.832C1770.56 444.862 1786.94 450.61 1819.7 450.61H1822.01C1836.08 450.61 1851.88 447.46 1868 441.423V464.993C1860.51 468.064 1852.27 470.401 1843.3 472.028C1834.29 473.655 1826.16 474.469 1818.89 474.469H1815.16C1764.87 474.469 1743.32 457.513 1743.32 412.971V387.983C1743.32 344.307 1764 326.484 1807.97 326.484H1812.85M1672.92 346.958V328.794H1646.2V472.474H1673.21V371.342C1686.78 358.612 1703.63 353.231 1719.75 353.231C1725.21 353.231 1730.67 353.808 1735.84 354.963V329.398C1731.24 328.243 1726.65 327.666 1721.77 327.666C1707.59 327.666 1692.37 331.839 1672.92 346.984" fill="#F26522"/>
<path d="M1410.75 274.008C1417.76 269.966 1422.25 262.406 1422.25 253.22C1422.25 232.747 1407.57 225.975 1381.56 225.975H1336.31V295.295H1358.46V280.806H1381.54C1385 280.806 1388.26 280.622 1391.3 280.281C1395.37 284.297 1398.97 290.754 1400.41 295.295H1423.45C1421.09 287.867 1416.24 279.021 1410.75 274.008ZM1382.59 264.847H1358.46V241.959H1382.59C1394.29 241.959 1400.93 244.059 1400.93 253.246C1400.93 262.433 1394.32 264.847 1382.59 264.847Z" fill="#ED1941"/>
<path d="M1318.42 225.975H1296.27V295.295H1318.42V225.975Z" fill="#ED1941"/>
<path d="M1497.22 225.975H1475.07V295.295H1497.22V225.975Z" fill="#ED1941"/>
<path d="M1745.9 225.975H1723.74V295.295H1745.9V225.975Z" fill="#ED1941"/>
<path d="M1665.99 225.968H1622.13V295.288H1665.99C1691.71 295.288 1710.72 283.739 1710.72 260.615C1710.72 237.49 1691.69 225.941 1665.99 225.941V225.968ZM1663.29 278.752H1644.28V242.504H1663.29C1679.82 242.504 1688.56 248.383 1688.56 260.615C1688.56 272.846 1679.82 278.726 1663.29 278.726V278.752Z" fill="#ED1941"/>
<path d="M1582.95 257.629C1569.69 242.826 1553.73 232.143 1533.92 225.975H1515.12V295.295H1536.41V248.443C1556.65 255.031 1575.39 275.609 1584.65 295.295H1604.23V225.975H1582.95V257.629Z" fill="#ED1941"/>
<path d="M1221.36 225.975C1206.71 242.511 1186.19 270.333 1186.19 295.295H1208.29C1208.29 291.568 1208.79 287.762 1209.65 283.956H1259.94C1260.81 287.762 1261.31 291.568 1261.31 295.295H1283.41C1283.41 270.333 1262.88 242.511 1248.24 225.975H1221.31H1221.36ZM1214.72 269.362C1220.07 257.577 1227.92 246.605 1234.82 238.705C1241.7 246.632 1249.55 257.577 1254.93 269.362H1214.74H1214.72Z" fill="#ED1941"/>
<path d="M1820.82 225.975H1793.89C1779.24 242.511 1758.72 270.333 1758.72 295.295H1780.82C1780.82 291.568 1781.32 287.762 1782.18 283.956H1832.47C1833.34 287.762 1833.84 291.568 1833.84 295.295H1855.94C1855.94 270.333 1835.41 242.511 1820.77 225.975H1820.82ZM1787.27 269.362C1792.63 257.577 1800.48 246.605 1807.38 238.705C1814.26 246.632 1822.11 257.577 1827.49 269.362H1787.3H1787.27Z" fill="#ED1941"/>
<path d="M1885.89 554.585C1881.53 554.65 1877.37 552.765 1874.9 550.881V563.293C1874.9 569.272 1875.68 570.376 1877.5 570.831V571.546H1868.93V570.831C1870.74 570.376 1871.52 569.272 1871.52 563.293V530.8C1871.52 525.471 1870.87 524.887 1868.93 524.042V523.457L1874.45 521.052L1874.9 521.442V526.901C1878.54 523.977 1883.16 521.052 1888.81 521.052C1895.76 521.052 1902.07 526.771 1902.07 537.169C1902.07 545.292 1896.87 554.455 1885.89 554.585ZM1874.9 543.472C1874.9 547.826 1880.43 553.415 1887.45 553.415C1894.07 553.415 1898.95 548.866 1898.95 539.573C1898.95 530.865 1895.11 522.742 1886.54 522.742C1881.66 522.742 1877.83 525.341 1874.9 527.746V543.472ZM1907.37 554V553.285C1909.19 552.83 1909.97 551.726 1909.97 545.747V530.8C1909.97 525.471 1909.32 524.887 1907.37 524.042V523.457L1912.89 521.052L1913.35 521.442V529.695C1914.39 526.966 1916.27 524.497 1917.96 523.197C1919.59 521.962 1921.73 521.052 1924.79 521.052C1927.84 521.052 1929.14 521.832 1929.14 522.612C1929.14 523.977 1927.71 525.731 1925.96 525.731C1924.4 525.731 1921.67 525.016 1918.22 524.107C1916.01 525.471 1913.61 529.825 1913.35 532.815V545.747C1913.35 551.726 1914.13 552.83 1915.95 553.285V554H1907.37ZM1944.99 554.65C1937.84 554.65 1929.53 549.386 1929.53 538.468C1929.53 528.396 1936.87 521.052 1946.68 521.052C1954.16 521.052 1959.03 525.666 1959.35 532.36H1933.23C1932.97 533.595 1932.84 534.894 1932.84 536.259C1932.84 545.682 1938.82 551.79 1947.4 551.79C1952.66 551.79 1956.1 549.386 1959.42 545.617L1959.94 546.137C1956.3 550.686 1951.3 554.65 1944.99 554.65ZM1933.36 531.58H1955.71C1955.19 528.331 1951.88 522.157 1944.41 522.157C1938.82 522.157 1934.79 525.796 1933.36 531.58ZM1977.03 554.65C1971.31 554.715 1966.89 552.96 1965.07 551.79L1964.62 544.512L1965.14 544.382C1967.74 550.491 1972.35 553.61 1978.33 553.61C1982.42 553.61 1985.8 551.466 1985.8 547.047C1985.8 541.783 1979.89 540.483 1975.54 538.988C1970.14 537.169 1965.46 535.739 1965.46 529.695C1965.46 524.367 1970.34 521.052 1976.45 521.052C1981.26 521.052 1984.83 522.157 1986.65 522.937L1986.91 529.046L1986.39 529.176C1984.44 524.367 1980.15 521.832 1975.67 521.832C1970.92 521.832 1967.87 523.977 1967.87 527.811C1967.87 532.49 1973 534.309 1977.29 535.674C1981.97 537.169 1988.27 538.598 1988.27 544.902C1988.27 551.011 1983.14 554.585 1977.03 554.65ZM2008.84 554.65C2001.69 554.65 1993.37 549.386 1993.37 538.468C1993.37 528.396 2000.71 521.052 2010.52 521.052C2018 521.052 2022.87 525.666 2023.2 532.36H1997.07C1996.81 533.595 1996.68 534.894 1996.68 536.259C1996.68 545.682 2002.66 551.79 2011.24 551.79C2016.5 551.79 2019.95 549.386 2023.26 545.617L2023.78 546.137C2020.14 550.686 2015.14 554.65 2008.84 554.65ZM1997.2 531.58H2019.56C2019.04 528.331 2015.72 522.157 2008.25 522.157C2002.66 522.157 1998.63 525.796 1997.2 531.58ZM2028.27 554V553.285C2030.09 552.83 2030.87 551.726 2030.87 545.747V530.8C2030.87 525.471 2030.22 524.887 2028.27 524.042V523.457L2033.79 521.052L2034.25 521.442V527.096C2038.21 523.847 2043.41 521.052 2048.41 521.052C2055.24 521.052 2059.01 525.341 2059.01 533.01V545.747C2059.01 551.726 2059.78 552.83 2061.6 553.285V554H2053.03V553.285C2054.85 552.83 2055.63 551.726 2055.63 545.747V534.374C2055.63 526.641 2052.44 522.742 2045.68 522.742C2041.59 522.742 2037.36 525.406 2034.25 528.071V545.747C2034.25 551.726 2035.03 552.83 2036.85 553.285V554H2028.27ZM2075.84 554.65C2072.08 554.65 2069.41 552.44 2069.41 545.942V522.287H2065.25V521.507L2072.08 514.164H2072.79V521.507H2082.54L2082.15 522.287H2072.79V545.812C2072.79 550.686 2074.93 552.31 2077.66 552.31C2079.94 552.31 2082.28 551.206 2084.42 548.736L2084.94 549.256C2082.93 551.661 2079.48 554.65 2075.84 554.65ZM2099.89 554.65C2094.18 554.715 2089.76 552.96 2087.94 551.79L2087.48 544.512L2088 544.382C2090.6 550.491 2095.22 553.61 2101.19 553.61C2105.29 553.61 2108.67 551.466 2108.67 547.047C2108.67 541.783 2102.75 540.483 2098.4 538.988C2093.01 537.169 2088.33 535.739 2088.33 529.695C2088.33 524.367 2093.2 521.052 2099.31 521.052C2104.12 521.052 2107.69 522.157 2109.51 522.937L2109.77 529.046L2109.25 529.176C2107.3 524.367 2103.01 521.832 2098.53 521.832C2093.79 521.832 2090.73 523.977 2090.73 527.811C2090.73 532.49 2095.87 534.309 2100.15 535.674C2104.83 537.169 2111.14 538.598 2111.14 544.902C2111.14 551.011 2106 554.585 2099.89 554.65Z" fill="#5B652C"/>
</svg>
